<?xml version="1.0" encoding="UTF-8" standalone="no"?>
<svg
   xmlns:dc="http://purl.org/dc/elements/1.1/"
   xmlns:cc="http://creativecommons.org/ns#"
   xmlns:rdf="http://www.w3.org/1999/02/22-rdf-syntax-ns#"
   xmlns:svg="http://www.w3.org/2000/svg"
   xmlns="http://www.w3.org/2000/svg"
   xmlns:sodipodi="http://sodipodi.sourceforge.net/DTD/sodipodi-0.dtd"
   xmlns:inkscape="http://www.inkscape.org/namespaces/inkscape"
   inkscape:export-ydpi="96"
   inkscape:export-xdpi="96"
   inkscape:export-filename="C:\Users\Bob\Documents\Projects\JavaScript\graphics\audio2d\logo\logo.png"
   sodipodi:docname="logo.svg"
   inkscape:version="1.0 (4035a4fb49, 2020-05-01)"
   id="svg8"
   version="1.1"
   viewBox="0 0 66.145834 66.145833"
   height="250"
   width="250">
  <defs
     id="defs2" />
  <sodipodi:namedview
     inkscape:window-maximized="0"
     inkscape:window-y="7"
     inkscape:window-x="209"
     inkscape:window-height="1040"
     inkscape:window-width="1274"
     units="px"
     showgrid="true"
     inkscape:document-rotation="0"
     inkscape:current-layer="layer2"
     inkscape:document-units="px"
     inkscape:cy="83.637515"
     inkscape:cx="101.20531"
     inkscape:zoom="1.4"
     inkscape:pageshadow="2"
     inkscape:pageopacity="0.0"
     borderopacity="1.0"
     bordercolor="#666666"
     pagecolor="#ffffff"
     id="base">
    <inkscape:grid
       id="grid833"
       type="xygrid" />
  </sodipodi:namedview>
  <metadata
     id="metadata5">
    <rdf:RDF>
      <cc:Work
         rdf:about="">
        <dc:format>image/svg+xml</dc:format>
        <dc:type
           rdf:resource="http://purl.org/dc/dcmitype/StillImage" />
        <dc:title></dc:title>
      </cc:Work>
    </rdf:RDF>
  </metadata>
  <g
     inkscape:label="Background"
     id="layer2"
     inkscape:groupmode="layer">
    <rect
       ry="0.37748635"
       y="-1.1882324e-06"
       x="-1.1882324e-06"
       height="66.145836"
       width="66.145836"
       id="rect944"
       style="fill:#ffffff;stroke:#e1b964;stroke-width:0;stroke-linecap:round" />
  </g>
  <g
     id="layer1"
     inkscape:groupmode="layer"
     inkscape:label="Logo">
    <g
       transform="translate(1.1542538)"
       id="g942">
      <text
         xml:space="preserve"
         style="font-style:normal;font-variant:normal;font-weight:900;font-stretch:normal;font-size:10.5833px;line-height:1.25;font-family:'Segoe UI';-inkscape-font-specification:'Segoe UI, Heavy';font-variant-ligatures:normal;font-variant-caps:normal;font-variant-numeric:normal;font-variant-east-asian:normal;fill:#000000;fill-opacity:1;stroke:none;stroke-width:0.264583"
         x="1.1339279"
         y="36.713509"
         id="text837"><tspan
           sodipodi:role="line"
           id="tspan835"
           x="1.1339279"
           y="36.713509"
           style="font-style:normal;font-variant:normal;font-weight:900;font-stretch:normal;font-size:10.5833px;font-family:'Segoe UI';-inkscape-font-specification:'Segoe UI, Heavy';font-variant-ligatures:normal;font-variant-caps:normal;font-variant-numeric:normal;font-variant-east-asian:normal;stroke-width:0.264583">AUDI</tspan></text>
      <g
         id="g915"
         transform="matrix(0.66060132,0,0,0.66060132,9.974203,16.356457)">
        <path
           d="M 43.275912,12.075748 A 13.229165,13.229165 0 0 0 30.060697,25.304914 13.229165,13.229165 0 0 0 43.289863,38.534081 13.229165,13.229165 0 0 0 48.81304,37.325369 l -3.833873,-8.221202 a 4.1577376,4.1577376 0 0 1 -1.689304,0.358632 4.1577376,4.1577376 0 0 1 -4.157885,-4.157885 4.1577376,4.1577376 0 0 1 4.153234,-4.157885 4.1577376,4.1577376 0 0 1 0.0047,0 4.1577376,4.1577376 0 0 1 4.157885,4.157885 4.1577376,4.1577376 0 0 1 -1.218012,2.939873 l 6.414079,6.414079 a 13.229165,13.229165 0 0 0 3.875215,-9.353952 13.229165,13.229165 0 0 0 -13.229167,-13.229166 13.229165,13.229165 0 0 0 -0.01395,0 z m 2.371431,16.654279 a 4.1577376,4.1577376 0 0 1 -0.0072,0.0052 L 49.49,36.991023 a 13.229165,13.229165 0 0 0 2.605011,-1.813327 z"
           style="fill:#000000;stroke:#e1b964;stroke-width:0;stroke-linecap:round"
           id="path839" />
        <circle
           style="fill:#000000;stroke:#e1b964;stroke-width:0;stroke-linecap:round"
           id="path841-3"
           cx="43.289864"
           cy="25.304916"
           r="3.1183033" />
      </g>
      <text
         id="text837-8"
         y="36.840118"
         x="48.569939"
         style="font-style:normal;font-variant:normal;font-weight:900;font-stretch:normal;font-size:10.5833px;line-height:1.25;font-family:'Segoe UI';-inkscape-font-specification:'Segoe UI, Heavy';font-variant-ligatures:normal;font-variant-caps:normal;font-variant-numeric:normal;font-variant-east-asian:normal;fill:#000000;fill-opacity:1;stroke:none;stroke-width:0.264583"
         xml:space="preserve"><tspan
           style="font-style:normal;font-variant:normal;font-weight:900;font-stretch:normal;font-size:10.5833px;font-family:'Segoe UI';-inkscape-font-specification:'Segoe UI, Heavy';font-variant-ligatures:normal;font-variant-caps:normal;font-variant-numeric:normal;font-variant-east-asian:normal;stroke-width:0.264583"
           y="36.840118"
           x="48.569939"
           id="tspan835-6"
           sodipodi:role="line">2D</tspan></text>
    </g>
  </g>
</svg>
