<?xml version="1.0" encoding="UTF-8" standalone="no"?>
<!-- Created with Inkscape (http://www.inkscape.org/) -->

<svg
   xmlns:dc="http://purl.org/dc/elements/1.1/"
   xmlns:cc="http://creativecommons.org/ns#"
   xmlns:rdf="http://www.w3.org/1999/02/22-rdf-syntax-ns#"
   xmlns:svg="http://www.w3.org/2000/svg"
   xmlns="http://www.w3.org/2000/svg"
   xmlns:sodipodi="http://sodipodi.sourceforge.net/DTD/sodipodi-0.dtd"
   xmlns:inkscape="http://www.inkscape.org/namespaces/inkscape"
   width="250"
   height="250"
   viewBox="0 0 66.145832 66.145835"
   version="1.1"
   id="svg8"
   inkscape:version="0.92.4 (5da689c313, 2019-01-14)"
   sodipodi:docname="linkquest-logo.svg">
  <defs
     id="defs2">
    <inkscape:path-effect
       effect="spiro"
       id="path-effect893"
       is_visible="true" />
    <inkscape:path-effect
       effect="spiro"
       id="path-effect821"
       is_visible="true" />
  </defs>
  <sodipodi:namedview
     id="base"
     pagecolor="#ffffff"
     bordercolor="#666666"
     borderopacity="1.0"
     inkscape:pageopacity="0.0"
     inkscape:pageshadow="2"
     inkscape:zoom="2.8"
     inkscape:cx="164.5084"
     inkscape:cy="115.8667"
     inkscape:document-units="px"
     inkscape:current-layer="layer1"
     showgrid="true"
     units="px"
     inkscape:window-width="1920"
     inkscape:window-height="1017"
     inkscape:window-x="1912"
     inkscape:window-y="-8"
     inkscape:window-maximized="1">
    <inkscape:grid
       type="xygrid"
       id="grid815" />
  </sodipodi:namedview>
  <metadata
     id="metadata5">
    <rdf:RDF>
      <cc:Work
         rdf:about="">
        <dc:format>image/svg+xml</dc:format>
        <dc:type
           rdf:resource="http://purl.org/dc/dcmitype/StillImage" />
        <dc:title></dc:title>
      </cc:Work>
    </rdf:RDF>
  </metadata>
  <g
     inkscape:label="Layer 1"
     inkscape:groupmode="layer"
     id="layer1"
     transform="translate(0,-230.85416)">
    <path
       style="fill:#e9d5a4;stroke:#522e03;stroke-width:0.27021274px;stroke-linecap:butt;stroke-linejoin:miter;stroke-opacity:1;fill-opacity:1"
       d="m 1.8520868,232.70625 10.8085112,-1.35106 1.351063,2.70212 1.351064,-1.35106 h 12.159574 l 13.510636,-1.35106 v 1.35106 l 2.702128,-1.35106 9.457446,2.70212 10.80851,-1.35106 -1.351063,6.75532 1.351063,6.75532 -2.702127,2.70212 h 2.702127 l -1.351063,14.86171 1.351063,2.70212 -2.702127,4.0532 2.702127,1.35106 1.351064,10.80851 h -4.053191 l 2.702127,1.35107 1.351064,12.15957 -4.053191,-1.35107 -2.702127,1.35107 v -1.35107 H 43.735063 l -1.351064,-5.40426 -2.702127,4.0532 -10.80851,-1.35106 -10.80851,2.70212 -2.702127,-2.70212 -1.351064,1.35106 -6.7553192,-1.35106 -6.75531879,2.70212 1.35106379,-10.8085 -1.35106379,-9.45745 2.70212759,-1.35107 -2.70212759,-1.35106 1.35106379,-10.80851 2.7021275,-1.35106 H 1.8520868 l 1.3510638,-9.45745 -1.3510638,-9.45745 2.7021275,-1.35106 H 1.8520868 Z"
       id="path817"
       inkscape:connector-curvature="0" />
    <path
       style="fill:#e4c98a;stroke:#522e03;stroke-width:0.26458332px;stroke-linecap:butt;stroke-linejoin:miter;stroke-opacity:1;fill-opacity:1"
       d="m 19.84375,259.95833 c 0.208652,-0.63322 0.13347,-1.32106 0.04203,-1.98146 -0.09144,-0.66041 -0.196253,-1.33866 -0.04203,-1.98729 0.149315,-0.62798 0.535816,-1.18207 1.014842,-1.61473 0.479025,-0.43265 1.048435,-0.75311 1.630991,-1.03111 0.891135,-0.42526 1.831967,-0.76381 2.645833,-1.32291 0.517242,-0.35533 0.977752,-0.79884 1.322917,-1.32292 0.543083,-0.82459 0.784988,-1.81787 1.322917,-2.64583 0.681439,-1.04885 1.776783,-1.74629 2.645833,-2.64584 0.350144,-0.36243 0.666083,-0.76156 0.903417,-1.20612 0.237334,-0.44456 0.394616,-0.93638 0.4195,-1.43971 0.04063,-0.82174 -0.268981,-1.63276 -0.214152,-2.45367 0.02741,-0.41045 0.154053,-0.82648 0.42782,-1.13353 0.136884,-0.15352 0.309157,-0.277 0.502464,-0.34727 0.193308,-0.0703 0.407702,-0.086 0.606784,-0.0343 0.153891,0.04 0.295981,0.11886 0.420515,0.21771 0.124535,0.0988 0.232242,0.21741 0.330395,0.34249 0.196307,0.25016 0.356853,0.52857 0.572007,0.76272 0.212659,0.23144 0.472599,0.41311 0.715614,0.61243 0.243015,0.19933 0.475854,0.42498 0.607303,0.71048 0.09334,0.20274 0.131292,0.42771 0.13538,0.65087 0.0041,0.22315 -0.02469,0.44559 -0.05971,0.66602 -0.07006,0.44085 -0.165386,0.89167 -0.07567,1.32895 0.0558,0.27197 0.183154,0.52809 0.36111,0.74119 0.177956,0.2131 0.40581,0.38328 0.657836,0.49974 0.504051,0.23292 1.096046,0.24485 1.626887,0.082 0.473246,-0.1452 0.894769,-0.41875 1.313629,-0.68257 0.418861,-0.26382 0.850828,-0.52492 1.332204,-0.64034 0.69689,-0.1671 1.436999,-0.0114 2.095274,0.27186 0.658274,0.28329 1.255045,0.68895 1.873476,1.05105 1.215701,0.71182 2.561055,1.26806 3.96875,1.32292 0.882451,0.0344 1.772118,-0.12855 2.645833,0 0.671967,0.0989 1.325694,0.37782 1.820515,0.84308 0.494822,0.46526 0.819198,1.12358 0.825319,1.80275 0.0062,0.68326 -0.311015,1.35209 -0.807362,1.82168 -0.496347,0.4696 -1.159721,0.74556 -1.838472,0.82416 -0.889642,0.10303 -1.779987,-0.11731 -2.665319,-0.25246 -0.442666,-0.0676 -0.890946,-0.11409 -1.33798,-0.088 -0.447035,0.0261 -0.894691,0.12708 -1.288367,0.34048 -0.553623,0.3001 -0.968708,0.80224 -1.322917,1.32291 -0.6532,0.96017 -1.151105,2.03284 -1.39991,3.16716 -0.248806,1.13432 -0.243586,2.33127 0.07699,3.44743 0.269306,0.93764 0.76107,1.81247 1.433476,2.51927 0.672406,0.70681 1.525279,1.24317 2.458239,1.52828 0.932959,0.28511 1.944172,0.31658 2.889365,0.0751 0.945192,-0.24148 1.820835,-0.75704 2.479337,-1.47682 0.211704,-0.2314 0.400772,-0.48258 0.609115,-0.71701 0.208343,-0.23443 0.439198,-0.45439 0.713802,-0.60591 0.3979,-0.21955 0.873616,-0.28267 1.321754,-0.20718 0.448138,0.0755 0.868523,0.28466 1.221582,0.5708 0.706118,0.57228 1.129149,1.42296 1.425414,2.28222 0.392868,1.13945 0.600071,2.36389 0.422215,3.55597 -0.177855,1.19208 -0.770611,2.34939 -1.745132,3.05861 -0.798644,0.58122 -1.789731,0.83023 -2.645833,1.32292 -0.468713,0.26975 -0.904212,0.62274 -1.176936,1.08972 -0.136362,0.2335 -0.229874,0.49352 -0.259709,0.76226 -0.02983,0.26875 0.0053,0.54617 0.113728,0.79385 0.126409,0.28864 0.346093,0.52685 0.584824,0.73251 0.23873,0.20567 0.499755,0.38429 0.738093,0.59041 0.726813,0.62856 1.222967,1.50654 1.438582,2.44295 0.215616,0.93641 0.157118,1.92733 -0.115666,2.84871 -0.280945,0.94895 -0.780088,1.81833 -1.322916,2.64584 -0.173562,0.26458 -0.352895,0.52702 -0.567158,0.75987 -0.214263,0.23285 -0.465743,0.43648 -0.755759,0.56304 -0.428367,0.18694 -0.919063,0.19504 -1.376065,0.0971 -0.457002,-0.098 -0.886076,-0.29618 -1.300802,-0.5117 -0.414726,-0.21552 -0.820614,-0.45033 -1.252391,-0.62925 -0.431778,-0.17892 -0.895568,-0.30151 -1.362409,-0.27905 -0.500234,0.0241 -0.980317,0.21365 -1.41373,0.46458 -0.433413,0.25094 -0.827496,0.56319 -1.232103,0.85833 -0.579684,0.42285 -1.189087,0.81511 -1.858233,1.07411 -0.669146,0.25899 -1.405042,0.37973 -2.110517,0.24881 -0.975652,-0.18106 -1.794787,-0.81263 -2.645833,-1.32292 -1.972727,-1.18286 -4.358222,-1.76973 -6.614583,-1.32291 -1.347796,0.2669 -2.598196,0.88315 -3.909447,1.29352 -0.655626,0.20519 -1.331628,0.35958 -2.018015,0.38823 -0.686386,0.0286 -1.385657,-0.0723 -2.010038,-0.35884 -0.574022,-0.26341 -1.06975,-0.67584 -1.496487,-1.14144 -0.426737,-0.4656 -0.789151,-0.9856 -1.149347,-1.50439 -0.180144,-0.25946 -0.360794,-0.51996 -0.573946,-0.75307 -0.213153,-0.23311 -0.461263,-0.43947 -0.74897,-0.56985 -0.332679,-0.15076 -0.708342,-0.19422 -1.071609,-0.15628 -0.363267,0.038 -0.715113,0.15478 -1.044954,0.31165 -0.659684,0.31373 -1.231141,0.78296 -1.852187,1.16755 -0.808252,0.50052 -1.721875,0.86179 -2.671427,0.90812 -0.949551,0.0463 -1.936754,-0.24733 -2.62024,-0.90812 -0.512706,-0.49568 -0.829199,-1.16552 -1.0126802,-1.85465 -0.1834813,-0.68913 -0.2434098,-1.4041 -0.3102362,-2.1141 -0.082969,-0.88151 -0.1769995,-1.7783 0,-2.64583 0.2592063,-1.27046 1.0703364,-2.34956 1.8869314,-3.35674 0.816595,-1.00719 1.680713,-2.02482 2.081819,-3.25785 0.2844,-0.87427 0.318315,-1.80645 0.430919,-2.71889 0.112603,-0.91244 0.322419,-1.8511 0.891997,-2.57277 0.349722,-0.44311 0.817753,-0.7801 1.312146,-1.05254 0.494393,-0.27244 1.018871,-0.48521 1.532215,-0.72 0.513344,-0.23479 1.020596,-0.49472 1.460031,-0.84904 0.439435,-0.35433 0.810613,-0.81104 0.987275,-1.34717 z"
       id="path819"
       inkscape:connector-curvature="0"
       inkscape:path-effect="#path-effect821"
       inkscape:original-d="m 19.84375,259.95833 c 1.763624,-1.32266 2.64e-4,-2.6461 0,-3.96875 -2.65e-4,-1.32266 1.764153,-1.76416 2.645833,-2.64584 0.88168,-0.88168 1.764154,-0.88221 2.645833,-1.32291 0.88168,-0.44071 0.882209,-0.88221 1.322917,-1.32292 0.440709,-0.44071 0.882208,-1.76415 1.322917,-2.64583 0.440708,-0.88168 1.764154,-1.76416 2.645833,-2.64584 0.881679,-0.88168 0.882208,-1.76415 1.322917,-2.64583 0.440708,-0.88168 0.882208,-2.6461 1.322916,-3.96875 0.440709,-1.32265 0.882208,0.88168 1.322917,1.32292 0.440708,0.44123 0.882208,0.88168 1.322917,1.32291 0.440708,0.44124 2.64e-4,1.76363 0,2.64584 -2.65e-4,0.88221 1.764154,0.88168 2.645833,1.32291 0.881679,0.44124 1.764154,-0.88221 2.645833,-1.32291 0.881679,-0.44071 2.646098,0.88168 3.96875,1.32291 1.322652,0.44124 2.646098,0.88168 3.96875,1.32292 1.322652,0.44124 1.764154,-2.6e-4 2.645833,0 0.881679,2.6e-4 1.764155,1.76362 2.645834,2.64583 0.881679,0.88221 -1.763626,1.76363 -2.645834,2.64584 -0.882208,0.88221 -3.527512,-2.7e-4 -5.291666,0 -1.764155,2.6e-4 -0.881679,0.88168 -1.322917,1.32291 -0.441238,0.44124 -0.881679,4.40946 -1.322917,6.61459 -0.441237,2.20512 6.173875,1.76362 9.260417,2.64583 3.086542,0.88221 0.882208,-0.88221 1.322917,-1.32292 0.440708,-0.44071 2.646098,1.76363 3.96875,2.64584 1.322652,0.8822 -0.881679,4.40945 -1.322917,6.61458 -0.441238,2.20512 -1.763625,0.88168 -2.645833,1.32292 -0.882208,0.44123 -0.881679,1.76362 -1.322917,2.64583 -0.441238,0.88221 0.882208,0.88168 1.322917,1.32292 0.440708,0.44123 0.882208,3.52751 1.322916,5.29166 0.440709,1.76416 -0.881679,1.76363 -1.322916,2.64584 -0.441238,0.8822 -0.881679,0.88167 -1.322917,1.32291 -0.441238,0.44124 -3.527512,-0.88221 -5.291667,-1.32291 -1.764154,-0.44071 -1.763625,0.88167 -2.645833,1.32291 -0.882208,0.44124 -2.645569,0.88168 -3.96875,1.32292 -1.323181,0.44124 -1.763625,-0.88221 -2.645833,-1.32292 -0.882208,-0.44071 -4.409459,-0.88221 -6.614583,-1.32291 -2.205125,-0.44071 -5.291402,0.88167 -7.9375,1.32291 -2.646098,0.44124 -1.763625,-1.76415 -2.645834,-2.64583 -0.882209,-0.88168 -0.881679,-0.88221 -1.322916,-1.32292 -0.441237,-0.44071 -2.645569,0.88168 -3.96875,1.32292 -1.323181,0.44124 -3.527513,-2.7e-4 -5.291667,0 -1.7641533,2.6e-4 -0.8816796,-2.6461 -1.3229164,-3.96875 -0.4412369,-1.32265 2.645e-4,-1.76415 0,-2.64583 -2.646e-4,-0.88168 2.6460974,-4.40999 3.9687504,-6.61459 1.322652,-2.20459 0.882208,-3.52804 1.322916,-5.29166 0.440708,-1.76363 3.528042,-2.6461 5.291667,-3.96875 z"
       transform="translate(0.52916681,-0.26458656)" />
    <circle
       style="fill:none;fill-opacity:1;stroke:#522e03;stroke-width:0.40900001;stroke-linejoin:round;stroke-miterlimit:4;stroke-dasharray:none;stroke-dashoffset:0;stroke-opacity:1;paint-order:normal"
       id="path823"
       cx="15.251337"
       cy="247.44728"
       r="5.2916665" />
    <text
       xml:space="preserve"
       style="font-style:normal;font-variant:normal;font-weight:900;font-stretch:normal;font-size:3.38479686px;line-height:1.25;font-family:'Segoe UI';-inkscape-font-specification:'Segoe UI, Heavy';font-variant-ligatures:normal;font-variant-caps:normal;font-variant-numeric:normal;font-feature-settings:normal;text-align:start;letter-spacing:0px;word-spacing:0px;writing-mode:lr-tb;text-anchor:start;fill:#522e03;fill-opacity:1;stroke:none;stroke-width:0.08461957;stroke-opacity:1;"
       x="13.852173"
       y="239.73657"
       id="text827"><tspan
         sodipodi:role="line"
         id="tspan825"
         x="13.852173"
         y="239.73657"
         style="font-style:normal;font-variant:normal;font-weight:900;font-stretch:normal;font-size:3.38479686px;font-family:'Segoe UI';-inkscape-font-specification:'Segoe UI, Heavy';font-variant-ligatures:normal;font-variant-caps:normal;font-variant-numeric:normal;font-feature-settings:normal;text-align:start;writing-mode:lr-tb;text-anchor:start;stroke-width:0.08461957;stroke:none;stroke-opacity:1;fill:#522e03;fill-opacity:1;">N</tspan></text>
    <path
       style="fill:none;stroke:#522e03;stroke-width:0.26458332px;stroke-linecap:butt;stroke-linejoin:miter;stroke-opacity:1"
       d="m 15.251338,240.17127 v 14.55208"
       id="path829"
       inkscape:connector-curvature="0" />
    <path
       style="fill:none;stroke:#522e03;stroke-width:0.26458332px;stroke-linecap:butt;stroke-linejoin:miter;stroke-opacity:1"
       d="M 8.6367544,247.44731 H 21.865921"
       id="path831"
       inkscape:connector-curvature="0" />
    <text
       xml:space="preserve"
       style="font-style:normal;font-variant:normal;font-weight:900;font-stretch:normal;font-size:3.38479662px;line-height:1.25;font-family:'Segoe UI';-inkscape-font-specification:'Segoe UI, Heavy';font-variant-ligatures:normal;font-variant-caps:normal;font-variant-numeric:normal;font-feature-settings:normal;text-align:start;letter-spacing:0px;word-spacing:0px;writing-mode:lr-tb;text-anchor:start;fill:#522e03;fill-opacity:1;stroke:none;stroke-width:0.08461957;stroke-opacity:1;"
       x="22.356638"
       y="248.52452"
       id="text827-1"><tspan
         sodipodi:role="line"
         id="tspan825-4"
         x="22.356638"
         y="248.52452"
         style="font-style:normal;font-variant:normal;font-weight:900;font-stretch:normal;font-size:3.38479662px;font-family:'Segoe UI';-inkscape-font-specification:'Segoe UI, Heavy';font-variant-ligatures:normal;font-variant-caps:normal;font-variant-numeric:normal;font-feature-settings:normal;text-align:start;writing-mode:lr-tb;text-anchor:start;stroke-width:0.08461957;stroke:none;stroke-opacity:1;fill:#522e03;fill-opacity:1;">E</tspan></text>
    <text
       xml:space="preserve"
       style="font-style:normal;font-variant:normal;font-weight:900;font-stretch:normal;font-size:3.38479662px;line-height:1.25;font-family:'Segoe UI';-inkscape-font-specification:'Segoe UI, Heavy';font-variant-ligatures:normal;font-variant-caps:normal;font-variant-numeric:normal;font-feature-settings:normal;text-align:start;letter-spacing:0px;word-spacing:0px;writing-mode:lr-tb;text-anchor:start;fill:#522e03;fill-opacity:1;stroke:none;stroke-width:0.08461957;stroke-opacity:1;"
       x="14.38134"
       y="257.59595"
       id="text827-7"><tspan
         sodipodi:role="line"
         id="tspan825-9"
         x="14.38134"
         y="257.59595"
         style="font-style:normal;font-variant:normal;font-weight:900;font-stretch:normal;font-size:3.38479662px;font-family:'Segoe UI';-inkscape-font-specification:'Segoe UI, Heavy';font-variant-ligatures:normal;font-variant-caps:normal;font-variant-numeric:normal;font-feature-settings:normal;text-align:start;writing-mode:lr-tb;text-anchor:start;stroke-width:0.08461957;stroke:none;stroke-opacity:1;fill:#522e03;fill-opacity:1;">S</tspan></text>
    <text
       xml:space="preserve"
       style="font-style:normal;font-variant:normal;font-weight:900;font-stretch:normal;font-size:3.38479662px;line-height:1.25;font-family:'Segoe UI';-inkscape-font-specification:'Segoe UI, Heavy';font-variant-ligatures:normal;font-variant-caps:normal;font-variant-numeric:normal;font-feature-settings:normal;text-align:start;letter-spacing:0px;word-spacing:0px;writing-mode:lr-tb;text-anchor:start;fill:#522e03;fill-opacity:1;stroke:none;stroke-width:0.08461957;stroke-opacity:1;"
       x="4.6673517"
       y="248.61902"
       id="text827-12"><tspan
         sodipodi:role="line"
         id="tspan825-1"
         x="4.6673517"
         y="248.61902"
         style="font-style:normal;font-variant:normal;font-weight:900;font-stretch:normal;font-size:3.38479662px;font-family:'Segoe UI';-inkscape-font-specification:'Segoe UI, Heavy';font-variant-ligatures:normal;font-variant-caps:normal;font-variant-numeric:normal;font-feature-settings:normal;text-align:start;writing-mode:lr-tb;text-anchor:start;stroke-width:0.08461957;stroke:none;stroke-opacity:1;fill:#522e03;fill-opacity:1;">W</tspan></text>
    <circle
       style="fill:none;fill-opacity:1;stroke:#522e03;stroke-width:0.40900001;stroke-linejoin:round;stroke-miterlimit:4;stroke-dasharray:none;stroke-dashoffset:0;stroke-opacity:1;paint-order:normal"
       id="path867"
       cx="21.166666"
       cy="274.51041"
       r="1.3229166" />
    <path
       style="fill:none;stroke:#522e03;stroke-width:0.396875;stroke-linecap:butt;stroke-linejoin:miter;stroke-opacity:1;stroke-miterlimit:4;stroke-dasharray:none"
       d="m 39.6875,248.05208 2.645833,2.64583"
       id="path887"
       inkscape:connector-curvature="0" />
    <path
       style="fill:none;stroke:#522e03;stroke-width:0.396875;stroke-linecap:butt;stroke-linejoin:miter;stroke-opacity:1;stroke-miterlimit:4;stroke-dasharray:none"
       d="M 42.333333,248.05208 39.6875,250.69791"
       id="path889"
       inkscape:connector-curvature="0" />
    <path
       style="fill:none;stroke:#522e03;stroke-width:0.26458332;stroke-linecap:butt;stroke-linejoin:miter;stroke-opacity:1;stroke-miterlimit:4;stroke-dasharray:0.52916664, 1.05833327000000010;stroke-dashoffset:0"
       d="m 23.8125,274.51041 c 0.878004,0.10206 1.767829,0.10206 2.645833,0 1.505074,-0.17496 2.99486,-0.66294 4.213853,-1.56289 1.218993,-0.89995 2.147891,-2.23482 2.40073,-3.72878 0.189463,-1.11949 5.14e-4,-2.27101 -0.305198,-3.36449 -0.305713,-1.09347 -0.727372,-2.15243 -1.017718,-3.25009 -0.411305,-1.55494 -0.554133,-3.18719 -0.349669,-4.78257 0.204464,-1.59537 0.761289,-3.1525 1.672585,-4.47785 1.502287,-2.18487 3.979799,-3.67138 6.614584,-3.96875"
       id="path891"
       inkscape:connector-curvature="0"
       inkscape:path-effect="#path-effect893"
       inkscape:original-d="m 23.8125,274.51041 c 0.882209,-2.7e-4 1.764153,-2.7e-4 2.645833,0 0.881679,2.6e-4 4.409988,-3.52804 6.614583,-5.29167 2.204596,-1.76362 -0.881679,-4.40998 -1.322916,-6.61458 -0.441238,-2.2046 0.882208,-6.17388 1.322916,-9.26042 0.440709,-3.08654 4.409988,-2.64609 6.614584,-3.96875" />
  </g>
</svg>
